<svg xmlns="http://www.w3.org/2000/svg" viewBox="0 0 240 240" fill="none">
<defs><linearGradient id="shell" x1="60" y1="45" x2="185" y2="210" gradientUnits="userSpaceOnUse"><stop stop-color="white"/><stop offset=".55" stop-color="#f6fbfa"/><stop offset="1" stop-color="#a6c8be"/></linearGradient><linearGradient id="screen" x1="75" y1="84" x2="160" y2="143" gradientUnits="userSpaceOnUse"><stop stop-color="#193e3a"/><stop offset="1" stop-color="#0b1a22"/></linearGradient><filter id="shadow"><feDropShadow dx="0" dy="7" stdDeviation="5" flood-color="#164d3d" flood-opacity=".15"/></filter></defs>
<ellipse cx="125" cy="222" rx="66" ry="8" fill="#087653" opacity=".08"/>
<g transform="rotate(-8 120 125)" filter="url(#shadow)"><path d="M125 53V31" stroke="#264d44" stroke-width="5"/><circle cx="125" cy="27" r="7" fill="#20bd88" stroke="#264d44" stroke-width="3"/><rect x="46" y="92" width="22" height="41" rx="11" fill="#b4d7ca" stroke="#27765c" stroke-width="3"/><rect x="180" y="92" width="22" height="41" rx="11" fill="#b4d7ca" stroke="#27765c" stroke-width="3"/><rect x="59" y="57" width="133" height="105" rx="44" fill="url(#shell)" stroke="#9ab9af" stroke-width="2"/><rect x="73" y="79" width="105" height="66" rx="25" fill="url(#screen)"/><path d="M91 110c0-12 15-12 15 0m34 0c0-12 15-12 15 0m-40 12q10 11 20 0" stroke="#66e0b0" stroke-width="4" stroke-linecap="round"/><path d="M114 163v11h24v-11" fill="#204c42"/><path d="M87 214v-20q0-24 36-24t37 24v20" fill="url(#shell)" stroke="#9ab9af" stroke-width="2"/><circle cx="125" cy="192" r="7" fill="#23b67f"/><path d="M82 180q-15 9-15 28m100-28q15 9 15 28" stroke="#bdd6ce" stroke-width="15" stroke-linecap="round"/><path d="M102 217v7m43-7v7" stroke="#204c42" stroke-width="12" stroke-linecap="round"/></g></svg>
